<svg id="visual" viewBox="0 0 960 300" width="960" height="300" xmlns="http://www.w3.org/2000/svg" xmlns:xlink="http://www.w3.org/1999/xlink" version="1.1"><path d="M0 127L22.8 133.7C45.7 140.3 91.3 153.7 137 152.3C182.7 151 228.3 135 274 133C319.7 131 365.3 143 411.2 139.5C457 136 503 117 548.8 107.2C594.7 97.3 640.3 96.7 686 104C731.7 111.3 777.3 126.7 823 135.2C868.7 143.7 914.3 145.3 937.2 146.2L960 147L960 301L937.2 301C914.3 301 868.7 301 823 301C777.3 301 731.7 301 686 301C640.3 301 594.7 301 548.8 301C503 301 457 301 411.2 301C365.3 301 319.7 301 274 301C228.3 301 182.7 301 137 301C91.3 301 45.7 301 22.8 301L0 301Z" fill="#db7218"></path><path d="M0 144L22.8 151.8C45.7 159.7 91.3 175.3 137 175.2C182.7 175 228.3 159 274 157.5C319.7 156 365.3 169 411.2 167.2C457 165.3 503 148.7 548.8 150C594.7 151.3 640.3 170.7 686 173.2C731.7 175.7 777.3 161.3 823 157.2C868.7 153 914.3 159 937.2 162L960 165L960 301L937.2 301C914.3 301 868.7 301 823 301C777.3 301 731.7 301 686 301C640.3 301 594.7 301 548.8 301C503 301 457 301 411.2 301C365.3 301 319.7 301 274 301C228.3 301 182.7 301 137 301C91.3 301 45.7 301 22.8 301L0 301Z" fill="#de5a2c"></path><path d="M0 204L22.8 208.2C45.7 212.3 91.3 220.7 137 221.2C182.7 221.7 228.3 214.3 274 203.8C319.7 193.3 365.3 179.7 411.2 173.5C457 167.3 503 168.7 548.8 171.2C594.7 173.7 640.3 177.3 686 188C731.7 198.7 777.3 216.3 823 214.7C868.7 213 914.3 192 937.2 181.5L960 171L960 301L937.2 301C914.3 301 868.7 301 823 301C777.3 301 731.7 301 686 301C640.3 301 594.7 301 548.8 301C503 301 457 301 411.2 301C365.3 301 319.7 301 274 301C228.3 301 182.7 301 137 301C91.3 301 45.7 301 22.8 301L0 301Z" fill="#db413e"></path><path d="M0 233L22.8 235.5C45.7 238 91.3 243 137 241.3C182.7 239.7 228.3 231.3 274 233.3C319.7 235.3 365.3 247.7 411.2 249.8C457 252 503 244 548.8 243.2C594.7 242.3 640.3 248.7 686 249.2C731.7 249.7 777.3 244.3 823 237.7C868.7 231 914.3 223 937.2 219L960 215L960 301L937.2 301C914.3 301 868.7 301 823 301C777.3 301 731.7 301 686 301C640.3 301 594.7 301 548.8 301C503 301 457 301 411.2 301C365.3 301 319.7 301 274 301C228.3 301 182.7 301 137 301C91.3 301 45.7 301 22.8 301L0 301Z" fill="#d2284f"></path><path d="M0 297L22.8 296.7C45.7 296.3 91.3 295.7 137 287.2C182.7 278.7 228.3 262.3 274 261.5C319.7 260.7 365.3 275.3 411.2 283.5C457 291.7 503 293.3 548.8 289C594.7 284.7 640.3 274.3 686 263.5C731.7 252.7 777.3 241.3 823 235.5C868.7 229.7 914.3 229.3 937.2 229.2L960 229L960 301L937.2 301C914.3 301 868.7 301 823 301C777.3 301 731.7 301 686 301C640.3 301 594.7 301 548.8 301C503 301 457 301 411.2 301C365.3 301 319.7 301 274 301C228.3 301 182.7 301 137 301C91.3 301 45.7 301 22.8 301L0 301Z" fill="#c41060"></path></svg>