<svg id="visual" viewBox="0 0 960 300" width="960" height="300" xmlns="http://www.w3.org/2000/svg" xmlns:xlink="http://www.w3.org/1999/xlink" version="1.1"><path d="M0 49L20 45.2C40 41.3 80 33.7 120 38.3C160 43 200 60 240 69.5C280 79 320 81 360 73.2C400 65.3 440 47.7 480 45.8C520 44 560 58 600 69.3C640 80.7 680 89.3 720 90.3C760 91.3 800 84.7 840 78.2C880 71.7 920 65.3 940 62.2L960 59L960 301L940 301C920 301 880 301 840 301C800 301 760 301 720 301C680 301 640 301 600 301C560 301 520 301 480 301C440 301 400 301 360 301C320 301 280 301 240 301C200 301 160 301 120 301C80 301 40 301 20 301L0 301Z" fill="#db7218"></path><path d="M0 107L20 99.5C40 92 80 77 120 78.3C160 79.7 200 97.3 240 103C280 108.7 320 102.3 360 108C400 113.7 440 131.3 480 129.3C520 127.3 560 105.7 600 99.7C640 93.7 680 103.3 720 108.3C760 113.3 800 113.7 840 117.5C880 121.3 920 128.7 940 132.3L960 136L960 301L940 301C920 301 880 301 840 301C800 301 760 301 720 301C680 301 640 301 600 301C560 301 520 301 480 301C440 301 400 301 360 301C320 301 280 301 240 301C200 301 160 301 120 301C80 301 40 301 20 301L0 301Z" fill="#dd5f28"></path><path d="M0 133L20 131C40 129 80 125 120 120.3C160 115.7 200 110.3 240 113.7C280 117 320 129 360 135.5C400 142 440 143 480 143.5C520 144 560 144 600 145.5C640 147 680 150 720 155.2C760 160.3 800 167.7 840 168.7C880 169.7 920 164.3 940 161.7L960 159L960 301L940 301C920 301 880 301 840 301C800 301 760 301 720 301C680 301 640 301 600 301C560 301 520 301 480 301C440 301 400 301 360 301C320 301 280 301 240 301C200 301 160 301 120 301C80 301 40 301 20 301L0 301Z" fill="#dd4b37"></path><path d="M0 144L20 143.5C40 143 80 142 120 145.5C160 149 200 157 240 168C280 179 320 193 360 197.7C400 202.3 440 197.7 480 196.7C520 195.7 560 198.3 600 191.7C640 185 680 169 720 167.3C760 165.7 800 178.3 840 182C880 185.7 920 180.3 940 177.7L960 175L960 301L940 301C920 301 880 301 840 301C800 301 760 301 720 301C680 301 640 301 600 301C560 301 520 301 480 301C440 301 400 301 360 301C320 301 280 301 240 301C200 301 160 301 120 301C80 301 40 301 20 301L0 301Z" fill="#d83745"></path><path d="M0 237L20 231.8C40 226.7 80 216.3 120 211C160 205.7 200 205.3 240 211.8C280 218.3 320 231.7 360 227.7C400 223.7 440 202.3 480 193.7C520 185 560 189 600 194.2C640 199.3 680 205.7 720 211.2C760 216.7 800 221.3 840 225.2C880 229 920 232 940 233.5L960 235L960 301L940 301C920 301 880 301 840 301C800 301 760 301 720 301C680 301 640 301 600 301C560 301 520 301 480 301C440 301 400 301 360 301C320 301 280 301 240 301C200 301 160 301 120 301C80 301 40 301 20 301L0 301Z" fill="#d02353"></path><path d="M0 226L20 231.5C40 237 80 248 120 252.3C160 256.7 200 254.3 240 256C280 257.7 320 263.3 360 263.2C400 263 440 257 480 260.5C520 264 560 277 600 272.3C640 267.7 680 245.3 720 234.2C760 223 800 223 840 233.5C880 244 920 265 940 275.5L960 286L960 301L940 301C920 301 880 301 840 301C800 301 760 301 720 301C680 301 640 301 600 301C560 301 520 301 480 301C440 301 400 301 360 301C320 301 280 301 240 301C200 301 160 301 120 301C80 301 40 301 20 301L0 301Z" fill="#c41060"></path></svg>