<svg id="visual" viewBox="0 0 900 600" width="900" height="600" xmlns="http://www.w3.org/2000/svg" xmlns:xlink="http://www.w3.org/1999/xlink" version="1.1"><g stroke-width="1" stroke-linejoin="bevel"><path d="M486 322L474 417L564.5 322Z" fill="#d02353" stroke="#d02353"></path><path d="M474 417L590.5 402L564.5 322Z" fill="#dd5f28" stroke="#dd5f28"></path><path d="M474 417L600.5 479L590.5 402Z" fill="#dd4b37" stroke="#dd4b37"></path><path d="M600.5 479L679 367L590.5 402Z" fill="#ca1959" stroke="#ca1959"></path><path d="M590.5 402L679 367L564.5 322Z" fill="#ca1959" stroke="#ca1959"></path><path d="M474 417L470 522L600.5 479Z" fill="#de5530" stroke="#de5530"></path><path d="M679 367L671 281L564.5 322Z" fill="#db413e" stroke="#db413e"></path><path d="M564.5 322L480 176L486 322Z" fill="#d02353" stroke="#d02353"></path><path d="M486 322L343.5 413L474 417Z" fill="#d02353" stroke="#d02353"></path><path d="M474 417L359.5 526L470 522Z" fill="#d52d4c" stroke="#d52d4c"></path><path d="M592.5 169L480 176L564.5 322Z" fill="#c41060" stroke="#c41060"></path><path d="M486 322L320.5 271L343.5 413Z" fill="#d52d4c" stroke="#d52d4c"></path><path d="M671 281L592.5 169L564.5 322Z" fill="#de5530" stroke="#de5530"></path><path d="M343.5 413L359.5 526L474 417Z" fill="#d83745" stroke="#d83745"></path><path d="M470 522L554.5 600L600.5 479Z" fill="#db7218" stroke="#db7218"></path><path d="M706 524L751.5 394L679 367Z" fill="#dd5f28" stroke="#dd5f28"></path><path d="M416 600L554.5 600L470 522Z" fill="#de5530" stroke="#de5530"></path><path d="M706 524L679 367L600.5 479Z" fill="#db413e" stroke="#db413e"></path><path d="M679 367L749.5 307L671 281Z" fill="#db7218" stroke="#db7218"></path><path d="M671 281L711 237L592.5 169Z" fill="#de5530" stroke="#de5530"></path><path d="M364.5 199L320.5 271L486 322Z" fill="#c41060" stroke="#c41060"></path><path d="M343.5 413L255 465L359.5 526Z" fill="#ca1959" stroke="#ca1959"></path><path d="M749.5 307L711 237L671 281Z" fill="#d02353" stroke="#d02353"></path><path d="M652 600L706 524L600.5 479Z" fill="#c41060" stroke="#c41060"></path><path d="M751.5 394L749.5 307L679 367Z" fill="#db413e" stroke="#db413e"></path><path d="M480 176L364.5 199L486 322Z" fill="#dd6821" stroke="#dd6821"></path><path d="M359.5 526L416 600L470 522Z" fill="#d02353" stroke="#d02353"></path><path d="M554.5 600L652 600L600.5 479Z" fill="#d52d4c" stroke="#d52d4c"></path><path d="M666 124L568.5 117L592.5 169Z" fill="#d02353" stroke="#d02353"></path><path d="M592.5 169L568.5 117L480 176Z" fill="#d02353" stroke="#d02353"></path><path d="M480 176L344.5 90L364.5 199Z" fill="#d52d4c" stroke="#d52d4c"></path><path d="M359.5 526L373.5 600L416 600Z" fill="#c41060" stroke="#c41060"></path><path d="M706 524L769.5 494L751.5 394Z" fill="#d52d4c" stroke="#d52d4c"></path><path d="M900 229L788.5 162L749.5 307Z" fill="#c41060" stroke="#c41060"></path><path d="M825.5 600L769.5 494L706 524Z" fill="#ca1959" stroke="#ca1959"></path><path d="M229 369L255 465L343.5 413Z" fill="#dd5f28" stroke="#dd5f28"></path><path d="M359.5 526L230 600L373.5 600Z" fill="#d52d4c" stroke="#d52d4c"></path><path d="M711 237L666 124L592.5 169Z" fill="#ca1959" stroke="#ca1959"></path><path d="M788.5 162L666 124L711 237Z" fill="#c41060" stroke="#c41060"></path><path d="M191 208L238 317L320.5 271Z" fill="#ca1959" stroke="#ca1959"></path><path d="M320.5 271L238 317L343.5 413Z" fill="#d83745" stroke="#d83745"></path><path d="M238 317L229 369L343.5 413Z" fill="#c41060" stroke="#c41060"></path><path d="M568.5 117L469 61L480 176Z" fill="#db413e" stroke="#db413e"></path><path d="M236 136L191 208L320.5 271Z" fill="#c41060" stroke="#c41060"></path><path d="M543.5 0L469 61L568.5 117Z" fill="#d83745" stroke="#d83745"></path><path d="M469 61L344.5 90L480 176Z" fill="#dd5f28" stroke="#dd5f28"></path><path d="M900 332L749.5 307L751.5 394Z" fill="#d83745" stroke="#d83745"></path><path d="M749.5 307L788.5 162L711 237Z" fill="#dd5f28" stroke="#dd5f28"></path><path d="M666 124L543.5 0L568.5 117Z" fill="#c41060" stroke="#c41060"></path><path d="M788.5 162L771.5 108L666 124Z" fill="#db413e" stroke="#db413e"></path><path d="M113.5 525L230 600L255 465Z" fill="#d02353" stroke="#d02353"></path><path d="M255 465L230 600L359.5 526Z" fill="#d52d4c" stroke="#d52d4c"></path><path d="M238 317L100.5 299L229 369Z" fill="#dd4b37" stroke="#dd4b37"></path><path d="M82.5 403L113.5 525L255 465Z" fill="#db7218" stroke="#db7218"></path><path d="M236 136L320.5 271L364.5 199Z" fill="#de5530" stroke="#de5530"></path><path d="M652 600L825.5 600L706 524Z" fill="#d02353" stroke="#d02353"></path><path d="M900 423L900 332L751.5 394Z" fill="#d02353" stroke="#d02353"></path><path d="M344.5 90L236 136L364.5 199Z" fill="#dd6821" stroke="#dd6821"></path><path d="M708 0L543.5 0L666 124Z" fill="#db413e" stroke="#db413e"></path><path d="M469 61L414 0L344.5 90Z" fill="#dd5f28" stroke="#dd5f28"></path><path d="M344.5 90L248 0L236 136Z" fill="#dd4b37" stroke="#dd4b37"></path><path d="M900 423L751.5 394L769.5 494Z" fill="#d52d4c" stroke="#d52d4c"></path><path d="M788.5 162L900 62L771.5 108Z" fill="#db7218" stroke="#db7218"></path><path d="M900 490L900 423L769.5 494Z" fill="#de5530" stroke="#de5530"></path><path d="M543.5 0L414 0L469 61Z" fill="#db7218" stroke="#db7218"></path><path d="M825.5 600L900 490L769.5 494Z" fill="#db413e" stroke="#db413e"></path><path d="M900 332L900 229L749.5 307Z" fill="#db7218" stroke="#db7218"></path><path d="M414 0L372.5 0L344.5 90Z" fill="#ca1959" stroke="#ca1959"></path><path d="M771.5 108L708 0L666 124Z" fill="#db7218" stroke="#db7218"></path><path d="M786.5 0L708 0L771.5 108Z" fill="#dd4b37" stroke="#dd4b37"></path><path d="M136.5 178L100.5 299L191 208Z" fill="#dd6821" stroke="#dd6821"></path><path d="M191 208L100.5 299L238 317Z" fill="#c41060" stroke="#c41060"></path><path d="M109.5 70L136.5 178L236 136Z" fill="#d52d4c" stroke="#d52d4c"></path><path d="M236 136L136.5 178L191 208Z" fill="#d83745" stroke="#d83745"></path><path d="M825.5 600L900 600L900 490Z" fill="#d02353" stroke="#d02353"></path><path d="M82.5 403L255 465L229 369Z" fill="#c41060" stroke="#c41060"></path><path d="M100.5 299L82.5 403L229 369Z" fill="#db7218" stroke="#db7218"></path><path d="M900 62L786.5 0L771.5 108Z" fill="#c41060" stroke="#c41060"></path><path d="M372.5 0L248 0L344.5 90Z" fill="#dd5f28" stroke="#dd5f28"></path><path d="M0 600L99.5 600L113.5 525Z" fill="#d83745" stroke="#d83745"></path><path d="M113.5 525L99.5 600L230 600Z" fill="#de5530" stroke="#de5530"></path><path d="M900 229L900 62L788.5 162Z" fill="#dd5f28" stroke="#dd5f28"></path><path d="M0 202L0 283L100.5 299Z" fill="#ca1959" stroke="#ca1959"></path><path d="M0 283L0 434L82.5 403Z" fill="#ca1959" stroke="#ca1959"></path><path d="M248 0L109.5 70L236 136Z" fill="#d02353" stroke="#d02353"></path><path d="M0 283L82.5 403L100.5 299Z" fill="#dd4b37" stroke="#dd4b37"></path><path d="M82.5 403L0 475L113.5 525Z" fill="#d83745" stroke="#d83745"></path><path d="M900 62L900 0L786.5 0Z" fill="#dd6821" stroke="#dd6821"></path><path d="M0 202L100.5 299L136.5 178Z" fill="#ca1959" stroke="#ca1959"></path><path d="M0 434L0 475L82.5 403Z" fill="#d52d4c" stroke="#d52d4c"></path><path d="M248 0L130.5 0L109.5 70Z" fill="#d52d4c" stroke="#d52d4c"></path><path d="M0 126L0 202L136.5 178Z" fill="#ca1959" stroke="#ca1959"></path><path d="M0 126L136.5 178L109.5 70Z" fill="#ca1959" stroke="#ca1959"></path><path d="M0 475L0 600L113.5 525Z" fill="#d02353" stroke="#d02353"></path><path d="M0 0L0 126L109.5 70Z" fill="#dd4b37" stroke="#dd4b37"></path><path d="M130.5 0L0 0L109.5 70Z" fill="#de5530" stroke="#de5530"></path></g></svg>